<?xml version="1.0" encoding="utf-8"?>
<!-- Generator: Adobe Illustrator 26.4.1, SVG Export Plug-In . SVG Version: 6.00 Build 0)  -->
<svg version="1.1" id="Layer_1" xmlns="http://www.w3.org/2000/svg" xmlns:xlink="http://www.w3.org/1999/xlink" x="0px" y="0px"
	 viewBox="0 0 100 100" style="enable-background:new 0 0 100 100;" xml:space="preserve">
<style type="text/css">
	.st0{fill:#ED1C24;}
	.st1{fill:#F7941D;}
</style>
<rect x="11.21" y="68.53" transform="matrix(0.7071 0.7071 -0.7071 0.7071 61.9096 7.9341)" class="st0" width="20.34" height="20.34"/>
<rect x="39.91" y="11.28" transform="matrix(0.7071 0.7071 -0.7071 0.7071 29.837 -29.1255)" class="st1" width="20.34" height="20.34"/>
<rect x="11.36" y="11.28" transform="matrix(0.7071 0.7071 -0.7071 0.7071 21.476 -8.9402)" class="st0" width="20.34" height="20.34"/>
<rect x="11.36" y="39.83" transform="matrix(0.7071 0.7071 -0.7071 0.7071 41.6613 -0.5792)" class="st1" width="20.34" height="20.34"/>
<rect x="68.45" y="11.28" transform="matrix(0.7071 0.7071 -0.7071 0.7071 38.198 -49.3108)" class="st0" width="20.34" height="20.34"/>
<rect x="39.83" y="68.78" transform="matrix(0.7071 0.7071 -0.7071 0.7071 70.4715 -12.2311)" class="st1" width="20.34" height="20.34"/>
<rect x="39.91" y="39.83" transform="matrix(0.7071 0.7071 -0.7071 0.7071 50.0223 -20.7645)" class="st0" width="20.34" height="20.34"/>
<rect x="68.45" y="68.78" transform="matrix(0.7071 0.7071 -0.7071 0.7071 78.8548 -32.4702)" class="st0" width="20.34" height="20.34"/>
<rect x="68.45" y="39.83" transform="matrix(0.7071 0.7071 -0.7071 0.7071 58.3833 -40.9498)" class="st1" width="20.34" height="20.34"/>
</svg>
