<?xml version="1.0" encoding="UTF-8"?>
<svg id="Layer_1" data-name="Layer 1" xmlns="http://www.w3.org/2000/svg" viewBox="0 0 400 100">
  <defs>
    <style>
      .cls-1, .cls-2 {
        fill: #fff;
      }

      .cls-3 {
        fill: #929292;
      }

      .cls-2 {
        fill-rule: evenodd;
      }
    </style>
  </defs>
  <g>
    <rect id="facebook-back" class="cls-3" width="100" height="100"/>
    <path id="facebook-facebook" class="cls-1" d="M74.91,22H25.09c-1.71,0-3.09,1.38-3.09,3.09v49.82c0,1.71,1.38,3.09,3.09,3.09h26.82v-21.69h-7.3v-8.45h7.3v-6.23c0-7.23,4.42-11.17,10.87-11.17,3.09,0,5.75,.23,6.52,.33v7.56h-4.47c-3.51,0-4.19,1.67-4.19,4.12v5.4h8.37l-1.09,8.45h-7.28v21.69h14.27c1.71,0,3.09-1.38,3.09-3.09V25.09c0-1.71-1.38-3.09-3.09-3.09Z"/>
  </g>
  <g>
    <rect id="github-back" class="cls-3" x="200" width="100" height="100"/>
    <g id="github-github">
      <path class="cls-2" d="M250,22.69c-15.46,0-28,12.54-28,28,0,12.37,8.02,22.87,19.15,26.57,1.4,.26,1.91-.61,1.91-1.35,0-.67-.03-2.87-.04-5.21-7.79,1.69-9.43-3.3-9.43-3.3-1.27-3.24-3.11-4.1-3.11-4.1-2.54-1.74,.19-1.7,.19-1.7,2.81,.2,4.29,2.89,4.29,2.89,2.5,4.28,6.55,3.04,8.15,2.33,.25-1.81,.98-3.04,1.78-3.74-6.22-.71-12.76-3.11-12.76-13.84,0-3.06,1.09-5.55,2.89-7.52-.29-.71-1.25-3.55,.27-7.41,0,0,2.35-.75,7.7,2.87,2.23-.62,4.63-.93,7.01-.94,2.38,.01,4.78,.32,7.01,.94,5.34-3.62,7.69-2.87,7.69-2.87,1.52,3.86,.57,6.7,.27,7.41,1.8,1.96,2.88,4.46,2.88,7.52,0,10.76-6.55,13.12-12.79,13.82,1,.87,1.9,2.57,1.9,5.18,0,3.75-.03,6.76-.03,7.68,0,.75,.5,1.62,1.92,1.34,11.12-3.71,19.13-14.2,19.13-26.57,0-15.46-12.54-28-28-28Z"/>
      <path class="cls-1" d="M232.61,62.89c-.06,.14-.28,.18-.48,.09-.2-.09-.32-.28-.25-.42,.06-.14,.28-.18,.48-.09,.2,.09,.32,.28,.25,.42h0Z"/>
      <path class="cls-1" d="M233.74,64.16c-.13,.12-.39,.07-.57-.13-.18-.2-.22-.46-.08-.58,.14-.12,.39-.07,.57,.13,.18,.2,.22,.46,.08,.58h0Z"/>
      <path class="cls-1" d="M234.84,65.77c-.17,.12-.45,0-.63-.24-.17-.25-.17-.55,0-.67,.17-.12,.45-.01,.63,.23,.17,.25,.17,.55,0,.67h0Z"/>
      <path class="cls-1" d="M236.36,67.33c-.15,.17-.48,.12-.72-.11-.24-.23-.31-.55-.16-.72,.16-.17,.49-.12,.73,.11,.24,.23,.32,.55,.15,.71h0Z"/>
      <path class="cls-1" d="M238.44,68.23c-.07,.22-.38,.32-.7,.23-.32-.1-.52-.35-.46-.57,.07-.22,.38-.33,.7-.23,.32,.1,.52,.35,.46,.57h0Z"/>
      <path class="cls-1" d="M240.73,68.4c0,.23-.26,.42-.59,.43-.33,0-.61-.18-.61-.41,0-.23,.26-.42,.6-.43,.33,0,.61,.18,.61,.41h0Z"/>
      <path class="cls-1" d="M242.87,68.04c.04,.23-.19,.46-.52,.52-.33,.06-.63-.08-.67-.3-.04-.23,.2-.46,.52-.52,.33-.06,.63,.08,.67,.31h0Z"/>
    </g>
  </g>
  <g>
    <rect id="linkedin-back" class="cls-3" x="100" width="100" height="100"/>
    <g id="linkedin-linkedin">
      <path class="cls-1" d="M122.71,40.43h11.62v37.34h-11.62V40.43Zm5.81-18.56c3.71,0,6.73,3.01,6.73,6.73s-3.01,6.73-6.73,6.73-6.73-3.01-6.73-6.73c0-3.71,3.01-6.73,6.73-6.73"/>
      <path class="cls-1" d="M141.61,40.43h11.12v5.1h.16c1.55-2.94,5.33-6.03,10.98-6.03,11.75,0,13.92,7.73,13.92,17.79v20.48h-11.6v-18.16c0-4.33-.07-9.9-6.03-9.9s-6.96,4.72-6.96,9.59v18.47h-11.59V40.43Z"/>
    </g>
  </g>
  <g>
    <rect id="twitter-back" class="cls-3" x="300" y="0" width="100" height="100"/>
    <path id="twitter-twitter" class="cls-1" d="M378,32.63c-2.06,.91-4.27,1.53-6.6,1.81,2.37-1.42,4.19-3.67,5.05-6.36-2.22,1.32-4.68,2.27-7.3,2.79-2.1-2.23-5.08-3.63-8.39-3.63-6.35,0-11.49,5.14-11.49,11.49,0,.9,.1,1.78,.3,2.62-9.55-.48-18.01-5.05-23.68-12-.99,1.7-1.56,3.67-1.56,5.78,0,3.99,2.03,7.5,5.11,9.56-1.88-.06-3.65-.58-5.2-1.44,0,.05,0,.1,0,.14,0,5.57,3.96,10.21,9.22,11.27-.96,.26-1.98,.4-3.03,.4-.74,0-1.46-.07-2.16-.21,1.46,4.56,5.71,7.89,10.73,7.98-3.93,3.08-8.89,4.92-14.27,4.92-.93,0-1.84-.05-2.74-.16,5.08,3.26,11.12,5.16,17.61,5.16,21.13,0,32.69-17.51,32.69-32.69,0-.5-.01-.99-.03-1.49,2.24-1.62,4.19-3.64,5.73-5.95Z"/>
  </g>
</svg>